<svg xmlns="http://www.w3.org/2000/svg" viewBox="0 0 64 64" role="img" aria-label="DS favicon">
  <defs>
    <linearGradient id="g" x1="0" y1="0" x2="1" y2="1">
      <stop offset="0%" stop-color="#64FFDA"/>
      <stop offset="100%" stop-color="#00BFA6"/>
    </linearGradient>
  </defs>
  <rect width="64" height="64" rx="14" fill="#0A192F"/>
  <path d="M14 48V16h10.5c7.2 0 11.6 3.7 11.6 10.1 0 6.3-4.4 10-11.6 10H22v12H14Zm8-18h2.2c3.3 0 5.4-1.5 5.4-4.4 0-2.8-2.1-4.3-5.4-4.3H22v8.7Z" fill="url(#g)"/>
  <path d="M37 48V16h8.3c7.8 0 12.5 4.1 12.5 16S53.1 48 45.3 48H37Zm8-8h.1c3.8 0 6-1.8 6-8s-2.2-8-6-8H45v16Z" fill="#ffffff" opacity="0.95"/>
</svg>
